<?xml version="1.0" encoding="UTF-8" standalone="no"?>
<!-- Created with Inkscape (http://www.inkscape.org/) -->

<svg
        xmlns:dc="http://purl.org/dc/elements/1.1/"
        xmlns:cc="http://creativecommons.org/ns#"
        xmlns:rdf="http://www.w3.org/1999/02/22-rdf-syntax-ns#"
        xmlns="http://www.w3.org/2000/svg"
        xmlns:sodipodi="http://sodipodi.sourceforge.net/DTD/sodipodi-0.dtd"
        xmlns:inkscape="http://www.inkscape.org/namespaces/inkscape"
        width="1050"
        height="250"
        viewBox="0 0 1050 250.00001"
        id="svg2"
        version="1.1"
        inkscape:version="0.92.2 (5c3e80d, 2017-08-06)"
        sodipodi:docname="BrandIconLeft.svg">
  <defs
     id="defs4" />
  <sodipodi:namedview
     id="base"
     pagecolor="#ffffff"
     bordercolor="#666666"
     borderopacity="1.0"
     inkscape:pageopacity="0.0"
     inkscape:pageshadow="2"
     inkscape:zoom="1.4"
     inkscape:cx="365.41782"
     inkscape:cy="111.89794"
     inkscape:document-units="px"
     inkscape:current-layer="layer1"
     showgrid="false"
     inkscape:window-width="1920"
     inkscape:window-height="1017"
     inkscape:window-x="-8"
     inkscape:window-y="-8"
     inkscape:window-maximized="1"
     units="px"
     fit-margin-top="0"
     fit-margin-left="0"
     fit-margin-right="0"
     fit-margin-bottom="0" />
  <metadata
     id="metadata7">
    <rdf:RDF>
      <cc:Work
         rdf:about="">
        <dc:format>image/svg+xml</dc:format>
        <dc:type
           rdf:resource="http://purl.org/dc/dcmitype/StillImage" />
        <dc:title />
      </cc:Work>
    </rdf:RDF>
  </metadata>
  <g
     inkscape:label="Layer 1"
     inkscape:groupmode="layer"
     id="layer1"
     transform="translate(268.03571,-531.64781)">
    <g
       id="g859">
      <path
         d="m -11.228369,693.52282 q 8.5,0 16.2499995,-2.875 7.8750005,-3 14.9999995,-9.625 l 6.250001,7.5 q -7.125001,6.625 -17.2500005,10.5 -10.1249995,3.875 -21.4999995,3.875 -11.75,0 -21.25,-3 -9.375,-3 -16.125,-8.875 -6.625,-5.875 -10.25,-14.5 -3.625,-8.625 -3.625,-19.875 0,-11.25 3.5,-19.875 3.625,-8.625 10.125,-14.5 6.625,-5.875 15.875,-8.875 9.25,-3 20.5,-3 11.375,0 21.4999995,3.875 10.1249995,3.875 17.2500005,10.5 l -6.250001,7.5 q -7.124999,-6.625 -14.9999995,-9.5 -7.7499995,-3 -16.2499995,-3 -6.75,0 -12.625,2.25 -5.875,2.125 -10.125,6.625 -4.25,4.5 -6.75,11.5 -2.375,6.875 -2.375,16.5 0,9.625 2.375,16.625 2.5,6.875 6.875,11.375 4.5,4.5 10.5,6.75 6.125,2.125 13.375,2.125 z"
         id="path4141"
         inkscape:connector-curvature="0"
         style="font-style:normal;font-variant:normal;font-weight:normal;font-stretch:normal;font-size:medium;line-height:125%;font-family:Prosto;-inkscape-font-specification:'Prosto, Normal';text-align:start;letter-spacing:0px;word-spacing:0px;writing-mode:lr-tb;text-anchor:start;fill:#0064c8;fill-opacity:1;stroke:none;stroke-width:1px;stroke-linecap:butt;stroke-linejoin:miter;stroke-opacity:1" />
      <path
         d="m 124.90445,612.89782 v 87.5 h -18.12501 v -38.125 H 55.529443 v 38.125 h -18.125 v -87.5 h 18.125 v 40 h 51.249997 v -40 z"
         id="path4143"
         inkscape:connector-curvature="0"
         style="font-style:normal;font-variant:normal;font-weight:normal;font-stretch:normal;font-size:medium;line-height:125%;font-family:Prosto;-inkscape-font-specification:'Prosto, Normal';text-align:start;letter-spacing:0px;word-spacing:0px;writing-mode:lr-tb;text-anchor:start;fill:#0064c8;fill-opacity:1;stroke:none;stroke-width:1px;stroke-linecap:butt;stroke-linejoin:miter;stroke-opacity:1" />
      <path
         d="m 165.50991,669.77282 h 38.75 l -18.75,-46.25 h -1.25 z m 33.75,-56.875 35.625,87.5 h -18 l -8.25,-21.25 h -47.5 l -8.25,21.25 h -18 l 35.625,-87.5 z"
         id="path4145"
         inkscape:connector-curvature="0"
         style="font-style:normal;font-variant:normal;font-weight:normal;font-stretch:normal;font-size:medium;line-height:125%;font-family:Prosto;-inkscape-font-specification:'Prosto, Normal';text-align:start;letter-spacing:0px;word-spacing:0px;writing-mode:lr-tb;text-anchor:start;fill:#0064c8;fill-opacity:1;stroke:none;stroke-width:1px;stroke-linecap:butt;stroke-linejoin:miter;stroke-opacity:1" />
      <path
         d="m 244.92398,612.89782 h 42.5 q 9.625,0 16.625,1.75 7.125,1.625 11.75,4.75 4.625,3 6.875,7.25 2.25,4.25 2.25,9.375 0,6.625 -3.75,11.5 -3.75,4.875 -11.25,7.25 9.375,1.875 14.625,7.375 5.375,5.375 5.375,13.875 0,11.25 -9.375,17.875 -9.25,6.5 -29.375,6.5 h -46.25 z m 18.125,47.5 v 30.625 h 28.125 q 9.375,0 14.375,-3.75 5,-3.75 5,-11.25 0,-8 -5,-11.75 -5,-3.875 -14.375,-3.875 z m 24.375,-9.375 q 18.125,0 18.125,-15 0,-6.625 -4.625,-10.125 -4.5,-3.625 -13.5,-3.625 h -24.375 v 28.75 z"
         id="path4147"
         inkscape:connector-curvature="0"
         style="font-style:normal;font-variant:normal;font-weight:normal;font-stretch:normal;font-size:medium;line-height:125%;font-family:Prosto;-inkscape-font-specification:'Prosto, Normal';text-align:start;letter-spacing:0px;word-spacing:0px;writing-mode:lr-tb;text-anchor:start;fill:#0064c8;fill-opacity:1;stroke:none;stroke-width:1px;stroke-linecap:butt;stroke-linejoin:miter;stroke-opacity:1" />
      <path
         d="m 416.89663,691.02282 v 9.375 h -71.875 v -87.5 h 18.125 v 78.125 z"
         id="path4149"
         inkscape:connector-curvature="0"
         style="font-style:normal;font-variant:normal;font-weight:normal;font-stretch:normal;font-size:medium;line-height:125%;font-family:Prosto;-inkscape-font-specification:'Prosto, Normal';text-align:start;letter-spacing:0px;word-spacing:0px;writing-mode:lr-tb;text-anchor:start;fill:#0064c8;fill-opacity:1;stroke:none;stroke-width:1px;stroke-linecap:butt;stroke-linejoin:miter;stroke-opacity:1" />
      <path
         d="m 466.74038,619.14782 q -6.375,0 -12,2.25 -5.5,2.25 -9.625,6.875 -4.125,4.625 -6.625,11.75 -2.375,7 -2.375,16.625 0,9.625 2.375,16.75 2.5,7 6.625,11.625 4.125,4.625 9.625,6.875 5.625,2.25 12,2.25 6.375,0 11.875,-2.25 5.625,-2.25 9.75,-6.875 4.125,-4.625 6.5,-11.625 2.5,-7.125 2.5,-16.75 0,-9.625 -2.5,-16.625 -2.375,-7.125 -6.5,-11.75 -4.125,-4.625 -9.75,-6.875 -5.5,-2.25 -11.875,-2.25 z m 0,-8.75 q 11.25,0 20.375,3 9.25,3 15.75,8.875 6.625,5.875 10.25,14.5 3.625,8.625 3.625,19.875 0,11.25 -3.625,19.875 -3.625,8.625 -10.25,14.5 -6.5,5.875 -15.75,8.875 -9.125,3 -20.375,3 -11.25,0 -20.5,-3 -9.25,-3 -15.875,-8.875 -6.5,-5.875 -10.125,-14.5 -3.5,-8.625 -3.5,-19.875 0,-11.25 3.5,-19.875 3.625,-8.625 10.125,-14.5 6.625,-5.875 15.875,-8.875 9.25,-3 20.5,-3 z"
         id="path4151"
         inkscape:connector-curvature="0"
         style="font-style:normal;font-variant:normal;font-weight:normal;font-stretch:normal;font-size:medium;line-height:125%;font-family:Prosto;-inkscape-font-specification:'Prosto, Normal';text-align:start;letter-spacing:0px;word-spacing:0px;writing-mode:lr-tb;text-anchor:start;fill:#0064c8;fill-opacity:1;stroke:none;stroke-width:1px;stroke-linecap:butt;stroke-linejoin:miter;stroke-opacity:1" />
      <path
         d="m 579.28921,619.14782 q -6.375,0 -12,2.25 -5.5,2.25 -9.625,6.875 -4.125,4.625 -6.625,11.75 -2.375,7 -2.375,16.625 0,9.625 2.375,16.75 2.5,7 6.625,11.625 4.125,4.625 9.625,6.875 5.625,2.25 12,2.25 6.375,0 11.875,-2.25 5.625,-2.25 9.75,-6.875 4.125,-4.625 6.5,-11.625 2.5,-7.125 2.5,-16.75 0,-9.625 -2.5,-16.625 -2.375,-7.125 -6.5,-11.75 -4.125,-4.625 -9.75,-6.875 -5.5,-2.25 -11.875,-2.25 z m 0,-8.75 q 11.25,0 20.375,3 9.25,3 15.75,8.875 6.625,5.875 10.25,14.5 3.625,8.625 3.625,19.875 0,11.25 -3.625,19.875 -3.625,8.625 -10.25,14.5 -6.5,5.875 -15.75,8.875 -9.125,3 -20.375,3 -11.25,0 -20.5,-3 -9.25,-3 -15.875,-8.875 -6.5,-5.875 -10.125,-14.5 -3.5,-8.625 -3.5,-19.875 0,-11.25 3.5,-19.875 3.625,-8.625 10.125,-14.5 6.625,-5.875 15.875,-8.875 9.25,-3 20.5,-3 z"
         id="path4153"
         inkscape:connector-curvature="0"
         style="font-style:normal;font-variant:normal;font-weight:normal;font-stretch:normal;font-size:medium;line-height:125%;font-family:Prosto;-inkscape-font-specification:'Prosto, Normal';text-align:start;letter-spacing:0px;word-spacing:0px;writing-mode:lr-tb;text-anchor:start;fill:#0064c8;fill-opacity:1;stroke:none;stroke-width:1px;stroke-linecap:butt;stroke-linejoin:miter;stroke-opacity:1" />
      <path
         d="m 703.71304,687.89782 h 1.25 l 32.5,-75 h 26.875 v 87.5 h -18.125 v -70 h -1.25 l -30,70 h -21.25 l -30,-70 h -1.25 v 70 h -18.125 v -87.5 h 26.875 z"
         id="path4155"
         inkscape:connector-curvature="0"
         style="font-style:normal;font-variant:normal;font-weight:normal;font-stretch:normal;font-size:medium;line-height:125%;font-family:Prosto;-inkscape-font-specification:'Prosto, Normal';text-align:start;letter-spacing:0px;word-spacing:0px;writing-mode:lr-tb;text-anchor:start;fill:#0064c8;fill-opacity:1;stroke:none;stroke-width:1px;stroke-linecap:butt;stroke-linejoin:miter;stroke-opacity:1" />
      <rect
         transform="matrix(0.95185232,0.30655695,0,1,0,0)"
         style="fill:#0064c8;fill-opacity:1;stroke:none;stroke-width:10;stroke-miterlimit:4;stroke-dasharray:none;stroke-opacity:1"
         id="rect4144"
         width="85.547501"
         height="146.81056"
         x="-177.52846"
         y="618.44537" />
      <rect
         transform="matrix(0.95185232,0.30655695,0,1,0,0)"
         y="637.66516"
         x="-220.30222"
         height="146.81056"
         width="85.547501"
         id="rect4146"
         style="fill:#c8c8c8;fill-opacity:1;stroke:none;stroke-width:10;stroke-miterlimit:4;stroke-dasharray:none;stroke-opacity:1" />
      <rect
         transform="matrix(0.95185232,0.30655693,0,1,0,0)"
         y="656.88489"
         x="-263.07596"
         height="146.81056"
         width="85.547501"
         id="rect4136"
         style="fill:#0064c8;fill-opacity:1;stroke:none;stroke-width:10;stroke-miterlimit:4;stroke-dasharray:none;stroke-opacity:1" />
    </g>
  </g>
</svg>
